<mxfile host="65bd71144e">
    <diagram id="0w7cI8pwRh8pBZICrIZc" name="Page-1">
        <mxGraphModel dx="1147" dy="808" grid="1" gridSize="10" guides="1" tooltips="1" connect="1" arrows="1" fold="1" page="1" pageScale="1" pageWidth="850" pageHeight="1100" math="0" shadow="0">
            <root>
                <mxCell id="0"/>
                <mxCell id="1" parent="0"/>
                <mxCell id="q5i21tgpqYZozQEwD1Fi-6" style="edgeStyle=orthogonalEdgeStyle;rounded=0;orthogonalLoop=1;jettySize=auto;html=1;strokeColor=#CCCCCC;" parent="1" source="q5i21tgpqYZozQEwD1Fi-1" target="q5i21tgpqYZozQEwD1Fi-3" edge="1">
                    <mxGeometry relative="1" as="geometry"/>
                </mxCell>
                <mxCell id="q5i21tgpqYZozQEwD1Fi-1" value="AWS CodeCommit" style="outlineConnect=0;fontColor=#CCCCCC;gradientColor=#4D72F3;gradientDirection=north;fillColor=#3334B9;strokeColor=#ffffff;dashed=0;verticalLabelPosition=bottom;verticalAlign=top;align=center;html=1;fontSize=12;fontStyle=0;aspect=fixed;shape=mxgraph.aws4.resourceIcon;resIcon=mxgraph.aws4.codecommit;" parent="1" vertex="1">
                    <mxGeometry x="250" y="190" width="78" height="78" as="geometry"/>
                </mxCell>
                <mxCell id="q5i21tgpqYZozQEwD1Fi-5" style="edgeStyle=orthogonalEdgeStyle;rounded=0;orthogonalLoop=1;jettySize=auto;html=1;strokeColor=#CCCCCC;" parent="1" source="q5i21tgpqYZozQEwD1Fi-2" target="q5i21tgpqYZozQEwD1Fi-1" edge="1">
                    <mxGeometry relative="1" as="geometry"/>
                </mxCell>
                <mxCell id="q5i21tgpqYZozQEwD1Fi-2" value="AWS Code Pipeline" style="outlineConnect=0;dashed=0;verticalLabelPosition=bottom;verticalAlign=top;align=center;html=1;shape=mxgraph.aws3.codepipeline;fillColor=#759C3E;gradientColor=none;fontColor=#CCCCCC;" parent="1" vertex="1">
                    <mxGeometry x="100" y="188.5" width="67.5" height="81" as="geometry"/>
                </mxCell>
                <mxCell id="q5i21tgpqYZozQEwD1Fi-7" style="edgeStyle=orthogonalEdgeStyle;rounded=0;orthogonalLoop=1;jettySize=auto;html=1;entryX=0;entryY=0.5;entryDx=0;entryDy=0;entryPerimeter=0;strokeColor=#CCCCCC;" parent="1" source="q5i21tgpqYZozQEwD1Fi-3" edge="1">
                    <mxGeometry relative="1" as="geometry">
                        <mxPoint x="570" y="229" as="targetPoint"/>
                    </mxGeometry>
                </mxCell>
                <mxCell id="q5i21tgpqYZozQEwD1Fi-3" value="AWS CodeBuild" style="outlineConnect=0;dashed=0;verticalLabelPosition=bottom;verticalAlign=top;align=center;html=1;shape=mxgraph.aws3.codebuild;fillColor=#759C3E;gradientColor=none;fontColor=#CCCCCC;" parent="1" vertex="1">
                    <mxGeometry x="410" y="182.5" width="76.5" height="93" as="geometry"/>
                </mxCell>
                <mxCell id="q5i21tgpqYZozQEwD1Fi-11" value="AWS CloudFormation" style="outlineConnect=0;fontColor=#CCCCCC;gradientColor=#F34482;gradientDirection=north;fillColor=#BC1356;strokeColor=#ffffff;dashed=0;verticalLabelPosition=bottom;verticalAlign=top;align=center;html=1;fontSize=12;fontStyle=0;aspect=fixed;shape=mxgraph.aws4.resourceIcon;resIcon=mxgraph.aws4.cloudformation;" parent="1" vertex="1">
                    <mxGeometry x="570" y="189" width="78" height="78" as="geometry"/>
                </mxCell>
            </root>
        </mxGraphModel>
    </diagram>
</mxfile>